<svg xmlns="http://www.w3.org/2000/svg" xmlns:xlink="http://www.w3.org/1999/xlink" width="500" zoomAndPan="magnify" viewBox="0 0 375 374.999991" height="500" preserveAspectRatio="xMidYMid meet" version="1.0"><defs><g/><clipPath id="12ab5be061"><path d="M 203 150.699219 L 229.582031 150.699219 L 229.582031 177 L 203 177 Z M 203 150.699219 " clip-rule="nonzero"/></clipPath><clipPath id="8ebee8521c"><path d="M 139.582031 214 L 166 214 L 166 240.699219 L 139.582031 240.699219 Z M 139.582031 214 " clip-rule="nonzero"/></clipPath><clipPath id="514578860f"><path d="M 171 182 L 226 182 L 226 240.699219 L 171 240.699219 Z M 171 182 " clip-rule="nonzero"/></clipPath><clipPath id="ad0ba1f51b"><path d="M 144 150.699219 L 198 150.699219 L 198 210 L 144 210 Z M 144 150.699219 " clip-rule="nonzero"/></clipPath></defs><g fill="#0e4644" fill-opacity="1"><g transform="translate(125.257644, 207.706258)"><g><path d="M -30.171875 -25.75 L 6.0625 -33.234375 L 4.546875 -24.96875 L -2.65625 -23.6875 L -5 -10.859375 L 1.296875 -7.109375 L -0.203125 1.15625 L -31.46875 -18.640625 Z M -9.875 -22.3125 L -20.375 -20.328125 L -20.390625 -20.25 L -11.265625 -14.703125 Z M -9.875 -22.3125 "/></g></g></g><g fill="#0e4644" fill-opacity="1"><g transform="translate(129.495018, 180.852102)"><g><path d="M -2.6875 -30.65625 C 0.226562 -31.175781 3.019531 -30.585938 5.6875 -28.890625 C 8.363281 -27.203125 10.085938 -24.929688 10.859375 -22.078125 C 11.628906 -19.234375 11.191406 -16.507812 9.546875 -13.90625 C 8.035156 -11.519531 5.929688 -10.085938 3.234375 -9.609375 L 3.203125 -9.546875 L 5.234375 -8.265625 L 1.34375 -2.109375 L -28.875 -21.234375 L -24.953125 -27.453125 L -11.046875 -18.65625 C -11.554688 -21.15625 -11.054688 -23.597656 -9.546875 -25.984375 C -7.898438 -28.585938 -5.613281 -30.144531 -2.6875 -30.65625 Z M 3.8125 -19.1875 C 3.519531 -20.457031 2.75 -21.484375 1.5 -22.265625 C 0.257812 -23.054688 -1.007812 -23.300781 -2.3125 -23 C -3.625 -22.707031 -4.660156 -21.960938 -5.421875 -20.765625 C -6.160156 -19.585938 -6.382812 -18.34375 -6.09375 -17.03125 C -5.8125 -15.71875 -5.046875 -14.664062 -3.796875 -13.875 C -2.585938 -13.101562 -1.335938 -12.859375 -0.046875 -13.140625 C 1.242188 -13.429688 2.273438 -14.1875 3.046875 -15.40625 C 3.847656 -16.664062 4.101562 -17.925781 3.8125 -19.1875 Z M 3.8125 -19.1875 "/></g></g></g><g fill="#0e4644" fill-opacity="1"><g transform="translate(141.142225, 160.716307)"><g><path d="M 8.140625 -29.671875 C 11.054688 -29.140625 13.472656 -27.613281 15.390625 -25.09375 C 17.304688 -22.582031 18.128906 -19.851562 17.859375 -16.90625 C 17.585938 -13.96875 16.226562 -11.566406 13.78125 -9.703125 C 11.53125 -7.992188 9.066406 -7.390625 6.390625 -7.890625 L 6.328125 -7.84375 L 7.78125 -5.921875 L 1.984375 -1.515625 L -19.6875 -29.96875 L -13.828125 -34.421875 L -3.84375 -21.328125 C -3.46875 -23.859375 -2.15625 -25.976562 0.09375 -27.6875 C 2.539062 -29.550781 5.222656 -30.210938 8.140625 -29.671875 Z M 10.25 -16.671875 C 10.414062 -17.960938 10.050781 -19.191406 9.15625 -20.359375 C 8.257812 -21.535156 7.148438 -22.207031 5.828125 -22.375 C 4.503906 -22.550781 3.273438 -22.210938 2.140625 -21.359375 C 1.046875 -20.515625 0.398438 -19.425781 0.203125 -18.09375 C 0.00390625 -16.769531 0.351562 -15.519531 1.25 -14.34375 C 2.125 -13.195312 3.21875 -12.53125 4.53125 -12.34375 C 5.851562 -12.15625 7.082031 -12.5 8.21875 -13.375 C 9.414062 -14.28125 10.09375 -15.378906 10.25 -16.671875 Z M 10.25 -16.671875 "/></g></g></g><g fill="#0e4644" fill-opacity="1"><g transform="translate(159.158064, 145.96045)"><g><path d="M 3.546875 -3.765625 C 0.660156 -5.078125 -1.269531 -7.304688 -2.25 -10.453125 C -3.226562 -13.597656 -2.851562 -16.550781 -1.125 -19.3125 C 0.601562 -22.082031 3.203125 -24.003906 6.671875 -25.078125 C 10.085938 -26.140625 13.28125 -26.015625 16.25 -24.703125 C 19.226562 -23.390625 21.203125 -21.164062 22.171875 -18.03125 C 23.148438 -14.90625 22.804688 -11.972656 21.140625 -9.234375 C 19.484375 -6.503906 16.894531 -4.59375 13.375 -3.5 C 9.71875 -2.363281 6.441406 -2.453125 3.546875 -3.765625 Z M 5.515625 -16.65625 C 4.890625 -15.476562 4.796875 -14.1875 5.234375 -12.78125 C 5.671875 -11.375 6.460938 -10.363281 7.609375 -9.75 C 8.753906 -9.132812 10.039062 -9.046875 11.46875 -9.484375 C 12.851562 -9.921875 13.847656 -10.722656 14.453125 -11.890625 C 15.054688 -13.066406 15.144531 -14.335938 14.71875 -15.703125 C 14.28125 -17.117188 13.460938 -18.132812 12.265625 -18.75 C 11.066406 -19.375 9.804688 -19.476562 8.484375 -19.0625 C 7.128906 -18.644531 6.140625 -17.84375 5.515625 -16.65625 Z M 5.515625 -16.65625 "/></g></g></g><g fill="#1e1e1e" fill-opacity="1"><g transform="translate(180.289796, 138.448876)"><g><path d="M 4 -34.171875 L 14.625 -33.703125 C 17.84375 -33.566406 20.375 -32.769531 22.21875 -31.3125 C 24.070312 -29.863281 24.929688 -27.597656 24.796875 -24.515625 C 24.648438 -21.085938 23.117188 -18.703125 20.203125 -17.359375 C 25.035156 -16.273438 27.347656 -13.28125 27.140625 -8.375 C 27.015625 -5.5 25.914062 -3.234375 23.84375 -1.578125 C 21.769531 0.078125 18.988281 0.828125 15.5 0.671875 L 2.5 0.109375 Z M 11.203125 -20.40625 L 11.828125 -20.390625 C 13.578125 -20.304688 14.894531 -20.550781 15.78125 -21.125 C 16.664062 -21.695312 17.140625 -22.675781 17.203125 -24.0625 C 17.304688 -26.382812 15.625 -27.625 12.15625 -27.78125 L 11.53125 -27.796875 Z M 10.5625 -5.578125 L 13.015625 -5.46875 C 16.847656 -5.300781 18.816406 -6.488281 18.921875 -9.03125 C 18.992188 -10.550781 18.5625 -11.664062 17.625 -12.375 C 16.695312 -13.082031 15.273438 -13.476562 13.359375 -13.5625 L 10.90625 -13.671875 Z M 10.5625 -5.578125 "/></g></g></g><g fill="#1e1e1e" fill-opacity="1"><g transform="translate(202.923238, 138.587616)"><g><path d="M 16.78125 -16.203125 L 12.953125 -6.796875 C 12.160156 -4.847656 11.890625 -3.34375 12.140625 -2.28125 C 12.398438 -1.21875 13.238281 -0.398438 14.65625 0.171875 C 16.070312 0.753906 17.242188 0.753906 18.171875 0.171875 C 19.097656 -0.410156 19.957031 -1.675781 20.75 -3.625 L 24.578125 -13.03125 L 31.390625 -10.25 L 26.890625 0.8125 C 25.546875 4.09375 23.722656 6.109375 21.421875 6.859375 C 19.128906 7.617188 16.117188 7.238281 12.390625 5.71875 C 8.671875 4.207031 6.25 2.375 5.125 0.21875 C 4.007812 -1.925781 4.125 -4.640625 5.46875 -7.921875 L 9.96875 -18.984375 Z M 16.78125 -16.203125 "/></g></g></g><g fill="#1e1e1e" fill-opacity="1"><g transform="translate(223.847962, 146.042784)"><g><path d="M 4.703125 0.6875 C 4.679688 -2.257812 5.726562 -4.90625 7.84375 -7.25 C 9.96875 -9.601562 12.503906 -10.921875 15.453125 -11.203125 C 18.410156 -11.492188 21.03125 -10.609375 23.3125 -8.546875 C 25.414062 -6.640625 26.539062 -4.414062 26.6875 -1.875 L 37.734375 -14.09375 L 43.203125 -9.15625 L 19.21875 17.375 L 13.828125 12.5 L 15.4375 10.71875 L 15.359375 10.65625 C 12.660156 10.9375 10.257812 10.125 8.15625 8.21875 C 5.875 6.15625 4.722656 3.644531 4.703125 0.6875 Z M 17.140625 -3.734375 C 15.804688 -3.671875 14.644531 -3.09375 13.65625 -2 C 12.664062 -0.914062 12.195312 0.269531 12.25 1.5625 C 12.3125 2.863281 12.894531 4.019531 14 5.03125 C 15.082031 6 16.28125 6.441406 17.59375 6.359375 C 18.914062 6.285156 20.0625 5.71875 21.03125 4.65625 C 22.019531 3.5625 22.472656 2.34375 22.390625 1 C 22.304688 -0.34375 21.75 -1.476562 20.71875 -2.40625 C 19.675781 -3.351562 18.484375 -3.796875 17.140625 -3.734375 Z M 17.140625 -3.734375 "/></g></g></g><g fill="#1e1e1e" fill-opacity="1"><g transform="translate(241.711167, 160.942881)"><g><path d="M 4.15625 2.28125 C 5.164062 -0.5 7.070312 -2.617188 9.875 -4.078125 C 12.6875 -5.535156 15.523438 -5.878906 18.390625 -5.109375 C 21.253906 -4.347656 23.398438 -2.609375 24.828125 0.109375 C 26.128906 2.628906 26.410156 5.109375 25.671875 7.546875 L 40.28125 -0.0625 L 43.6875 6.46875 L 11.96875 22.984375 L 8.609375 16.53125 L 10.75 15.421875 L 10.703125 15.34375 C 8.066406 14.65625 6.097656 13.050781 4.796875 10.53125 C 3.367188 7.8125 3.15625 5.0625 4.15625 2.28125 Z M 17.375 2.453125 C 16.101562 2.046875 14.8125 2.179688 13.5 2.859375 C 12.195312 3.546875 11.34375 4.507812 10.9375 5.75 C 10.53125 6.988281 10.675781 8.269531 11.375 9.59375 C 12.039062 10.882812 13.003906 11.722656 14.265625 12.109375 C 15.535156 12.492188 16.804688 12.359375 18.078125 11.703125 C 19.390625 11.015625 20.242188 10.023438 20.640625 8.734375 C 21.035156 7.441406 20.914062 6.179688 20.28125 4.953125 C 19.625 3.703125 18.65625 2.867188 17.375 2.453125 Z M 17.375 2.453125 "/></g></g></g><g fill="#1e1e1e" fill-opacity="1"><g transform="translate(253.099251, 181.295738)"><g><path d="M 23.71875 15.5625 L 24.890625 23.953125 L -9.265625 11.796875 L -10.4375 3.375 L 4.578125 8.734375 L 21.03125 -3.75 L 22.203125 4.640625 L 12.1875 12.03125 Z M 23.71875 15.5625 "/></g></g></g><path fill="#000000" d="M 200.527344 179.683594 L 172.988281 179.683594 C 172.703125 179.683594 172.421875 179.710938 172.140625 179.765625 C 171.863281 179.824219 171.589844 179.90625 171.324219 180.015625 C 171.0625 180.125 170.8125 180.257812 170.574219 180.417969 C 170.335938 180.574219 170.117188 180.753906 169.914062 180.957031 C 169.714844 181.160156 169.53125 181.378906 169.375 181.617188 C 169.214844 181.851562 169.082031 182.105469 168.972656 182.367188 C 168.863281 182.632812 168.78125 182.902344 168.726562 183.183594 C 168.667969 183.464844 168.640625 183.746094 168.640625 184.03125 L 168.640625 210.117188 C 168.640625 210.402344 168.667969 210.6875 168.726562 210.964844 C 168.78125 211.246094 168.863281 211.519531 168.972656 211.78125 C 169.082031 212.046875 169.214844 212.296875 169.375 212.535156 C 169.53125 212.769531 169.714844 212.992188 169.914062 213.191406 C 170.117188 213.394531 170.335938 213.574219 170.574219 213.734375 C 170.8125 213.890625 171.0625 214.027344 171.324219 214.136719 C 171.589844 214.246094 171.863281 214.328125 172.140625 214.382812 C 172.421875 214.4375 172.703125 214.464844 172.988281 214.464844 L 196.179688 214.464844 C 196.578125 214.464844 196.917969 214.324219 197.203125 214.042969 L 204.449219 206.796875 C 204.730469 206.511719 204.875 206.171875 204.875 205.769531 L 204.875 184.03125 C 204.875 183.746094 204.847656 183.464844 204.789062 183.183594 C 204.734375 182.902344 204.652344 182.632812 204.542969 182.367188 C 204.433594 182.105469 204.300781 181.851562 204.140625 181.617188 C 203.980469 181.378906 203.800781 181.160156 203.601562 180.957031 C 203.398438 180.753906 203.179688 180.574219 202.941406 180.417969 C 202.703125 180.257812 202.453125 180.125 202.191406 180.015625 C 201.925781 179.90625 201.652344 179.824219 201.375 179.765625 C 201.09375 179.710938 200.8125 179.683594 200.527344 179.683594 Z M 197.628906 209.519531 L 197.628906 207.21875 L 199.925781 207.21875 Z M 201.976562 204.320312 L 196.179688 204.320312 C 195.984375 204.320312 195.800781 204.359375 195.625 204.429688 C 195.445312 204.503906 195.289062 204.609375 195.152344 204.746094 C 195.015625 204.882812 194.914062 205.039062 194.839844 205.214844 C 194.765625 205.394531 194.730469 205.578125 194.730469 205.769531 L 194.730469 211.566406 L 172.988281 211.566406 C 172.796875 211.566406 172.613281 211.53125 172.433594 211.457031 C 172.257812 211.382812 172.101562 211.277344 171.964844 211.144531 C 171.828125 211.007812 171.722656 210.851562 171.652344 210.671875 C 171.578125 210.496094 171.539062 210.308594 171.539062 210.117188 L 171.539062 188.378906 L 201.976562 188.378906 Z M 201.976562 185.480469 L 171.539062 185.480469 L 171.539062 184.03125 C 171.539062 183.839844 171.578125 183.652344 171.652344 183.476562 C 171.722656 183.300781 171.828125 183.140625 171.964844 183.007812 C 172.101562 182.871094 172.257812 182.765625 172.433594 182.691406 C 172.613281 182.617188 172.796875 182.582031 172.988281 182.582031 L 200.527344 182.582031 C 200.71875 182.582031 200.902344 182.617188 201.082031 182.691406 C 201.257812 182.765625 201.414062 182.871094 201.550781 183.007812 C 201.6875 183.140625 201.792969 183.300781 201.863281 183.476562 C 201.9375 183.652344 201.976562 183.839844 201.976562 184.03125 Z M 201.976562 185.480469 " fill-opacity="1" fill-rule="nonzero"/><path fill="#000000" d="M 181.683594 192.726562 L 184.582031 192.726562 L 184.582031 195.625 L 181.683594 195.625 Z M 181.683594 192.726562 " fill-opacity="1" fill-rule="nonzero"/><path fill="#000000" d="M 188.929688 192.726562 L 191.832031 192.726562 L 191.832031 195.625 L 188.929688 195.625 Z M 188.929688 192.726562 " fill-opacity="1" fill-rule="nonzero"/><path fill="#000000" d="M 196.179688 192.726562 L 199.078125 192.726562 L 199.078125 195.625 L 196.179688 195.625 Z M 196.179688 192.726562 " fill-opacity="1" fill-rule="nonzero"/><path fill="#000000" d="M 181.683594 198.523438 L 184.582031 198.523438 L 184.582031 201.421875 L 181.683594 201.421875 Z M 181.683594 198.523438 " fill-opacity="1" fill-rule="nonzero"/><path fill="#000000" d="M 174.4375 198.523438 L 177.335938 198.523438 L 177.335938 201.421875 L 174.4375 201.421875 Z M 174.4375 198.523438 " fill-opacity="1" fill-rule="nonzero"/><path fill="#000000" d="M 188.929688 198.523438 L 191.832031 198.523438 L 191.832031 201.421875 L 188.929688 201.421875 Z M 188.929688 198.523438 " fill-opacity="1" fill-rule="nonzero"/><path fill="#000000" d="M 181.683594 204.320312 L 184.582031 204.320312 L 184.582031 207.21875 L 181.683594 207.21875 Z M 181.683594 204.320312 " fill-opacity="1" fill-rule="nonzero"/><path fill="#000000" d="M 174.4375 204.320312 L 177.335938 204.320312 L 177.335938 207.21875 L 174.4375 207.21875 Z M 174.4375 204.320312 " fill-opacity="1" fill-rule="nonzero"/><path fill="#000000" d="M 188.929688 204.320312 L 191.832031 204.320312 L 191.832031 207.21875 L 188.929688 207.21875 Z M 188.929688 204.320312 " fill-opacity="1" fill-rule="nonzero"/><path fill="#000000" d="M 196.179688 198.523438 L 199.078125 198.523438 L 199.078125 201.421875 L 196.179688 201.421875 Z M 196.179688 198.523438 " fill-opacity="1" fill-rule="nonzero"/><g clip-path="url(#12ab5be061)"><path fill="#000000" d="M 216.46875 150.699219 C 215.613281 150.699219 214.761719 150.78125 213.921875 150.949219 C 213.082031 151.117188 212.269531 151.363281 211.476562 151.691406 C 210.683594 152.019531 209.933594 152.421875 209.222656 152.894531 C 208.507812 153.371094 207.851562 153.914062 207.246094 154.519531 C 206.640625 155.125 206.097656 155.78125 205.621094 156.496094 C 205.148438 157.207031 204.746094 157.957031 204.417969 158.75 C 204.089844 159.542969 203.84375 160.355469 203.675781 161.195312 C 203.507812 162.035156 203.425781 162.886719 203.425781 163.742188 C 203.425781 164.597656 203.507812 165.445312 203.675781 166.285156 C 203.84375 167.125 204.089844 167.941406 204.417969 168.734375 C 204.746094 169.523438 205.148438 170.277344 205.621094 170.988281 C 206.097656 171.699219 206.640625 172.359375 207.246094 172.964844 C 207.851562 173.570312 208.507812 174.109375 209.222656 174.585938 C 209.933594 175.0625 210.683594 175.464844 211.476562 175.792969 C 212.269531 176.121094 213.082031 176.367188 213.921875 176.535156 C 214.761719 176.703125 215.613281 176.785156 216.46875 176.785156 C 217.324219 176.785156 218.171875 176.703125 219.011719 176.535156 C 219.851562 176.367188 220.667969 176.121094 221.460938 175.792969 C 222.25 175.464844 223.003906 175.0625 223.714844 174.585938 C 224.425781 174.109375 225.085938 173.570312 225.691406 172.964844 C 226.296875 172.359375 226.835938 171.699219 227.3125 170.988281 C 227.789062 170.277344 228.191406 169.523438 228.519531 168.734375 C 228.847656 167.941406 229.09375 167.125 229.261719 166.285156 C 229.429688 165.445312 229.511719 164.597656 229.511719 163.742188 C 229.511719 162.886719 229.425781 162.039062 229.257812 161.199219 C 229.089844 160.359375 228.84375 159.542969 228.515625 158.753906 C 228.1875 157.960938 227.785156 157.210938 227.308594 156.5 C 226.832031 155.785156 226.292969 155.128906 225.6875 154.523438 C 225.082031 153.917969 224.421875 153.375 223.710938 152.902344 C 223 152.425781 222.246094 152.023438 221.457031 151.695312 C 220.667969 151.367188 219.851562 151.117188 219.011719 150.949219 C 218.171875 150.785156 217.324219 150.699219 216.46875 150.699219 Z M 216.46875 173.886719 C 215.800781 173.886719 215.140625 173.820312 214.488281 173.691406 C 213.835938 173.5625 213.199219 173.367188 212.585938 173.113281 C 211.96875 172.859375 211.386719 172.546875 210.832031 172.175781 C 210.277344 171.804688 209.765625 171.386719 209.292969 170.914062 C 208.824219 170.445312 208.402344 169.929688 208.03125 169.378906 C 207.664062 168.824219 207.351562 168.238281 207.09375 167.625 C 206.839844 167.007812 206.648438 166.375 206.519531 165.71875 C 206.386719 165.066406 206.324219 164.40625 206.324219 163.742188 C 206.324219 163.074219 206.386719 162.414062 206.519531 161.761719 C 206.648438 161.109375 206.839844 160.472656 207.09375 159.859375 C 207.351562 159.242188 207.664062 158.660156 208.03125 158.105469 C 208.402344 157.550781 208.824219 157.039062 209.292969 156.566406 C 209.765625 156.097656 210.277344 155.675781 210.832031 155.304688 C 211.386719 154.9375 211.96875 154.625 212.585938 154.367188 C 213.199219 154.113281 213.835938 153.921875 214.488281 153.792969 C 215.140625 153.660156 215.800781 153.597656 216.46875 153.597656 C 217.132812 153.597656 217.792969 153.660156 218.445312 153.792969 C 219.101562 153.921875 219.734375 154.113281 220.351562 154.367188 C 220.964844 154.625 221.550781 154.9375 222.105469 155.304688 C 222.65625 155.675781 223.171875 156.097656 223.640625 156.566406 C 224.113281 157.039062 224.53125 157.550781 224.902344 158.105469 C 225.273438 158.660156 225.585938 159.242188 225.839844 159.859375 C 226.09375 160.472656 226.289062 161.109375 226.417969 161.761719 C 226.546875 162.414062 226.613281 163.074219 226.613281 163.742188 C 226.613281 164.40625 226.546875 165.066406 226.414062 165.71875 C 226.285156 166.371094 226.09375 167.007812 225.835938 167.621094 C 225.582031 168.238281 225.269531 168.820312 224.898438 169.375 C 224.527344 169.929688 224.109375 170.441406 223.636719 170.910156 C 223.167969 171.382812 222.65625 171.800781 222.101562 172.171875 C 221.546875 172.542969 220.964844 172.855469 220.347656 173.109375 C 219.734375 173.367188 219.097656 173.558594 218.445312 173.6875 C 217.792969 173.820312 217.132812 173.886719 216.46875 173.886719 Z M 216.46875 173.886719 " fill-opacity="1" fill-rule="nonzero"/></g><g clip-path="url(#8ebee8521c)"><path fill="#000000" d="M 152.699219 240.554688 C 153.554688 240.554688 154.40625 240.46875 155.246094 240.300781 C 156.085938 240.136719 156.898438 239.886719 157.691406 239.558594 C 158.484375 239.230469 159.234375 238.832031 159.945312 238.355469 C 160.660156 237.878906 161.316406 237.339844 161.921875 236.734375 C 162.527344 236.128906 163.070312 235.46875 163.546875 234.757812 C 164.019531 234.042969 164.421875 233.292969 164.75 232.5 C 165.078125 231.710938 165.324219 230.894531 165.492188 230.054688 C 165.660156 229.214844 165.742188 228.367188 165.742188 227.507812 C 165.742188 226.652344 165.660156 225.804688 165.492188 224.964844 C 165.324219 224.125 165.078125 223.308594 164.75 222.519531 C 164.421875 221.726562 164.019531 220.976562 163.546875 220.261719 C 163.070312 219.550781 162.527344 218.890625 161.921875 218.285156 C 161.316406 217.679688 160.660156 217.140625 159.945312 216.664062 C 159.234375 216.1875 158.484375 215.785156 157.691406 215.457031 C 156.898438 215.132812 156.085938 214.882812 155.246094 214.714844 C 154.40625 214.550781 153.554688 214.464844 152.699219 214.464844 C 151.84375 214.464844 150.996094 214.550781 150.15625 214.714844 C 149.316406 214.882812 148.5 215.132812 147.707031 215.457031 C 146.917969 215.785156 146.164062 216.1875 145.453125 216.664062 C 144.742188 217.140625 144.082031 217.679688 143.476562 218.285156 C 142.871094 218.890625 142.332031 219.550781 141.855469 220.261719 C 141.378906 220.976562 140.976562 221.726562 140.648438 222.519531 C 140.320312 223.308594 140.074219 224.125 139.90625 224.964844 C 139.738281 225.804688 139.65625 226.652344 139.65625 227.507812 C 139.65625 228.367188 139.742188 229.214844 139.910156 230.054688 C 140.078125 230.894531 140.324219 231.707031 140.652344 232.5 C 140.980469 233.289062 141.382812 234.039062 141.859375 234.753906 C 142.335938 235.464844 142.875 236.121094 143.480469 236.726562 C 144.085938 237.332031 144.746094 237.875 145.457031 238.351562 C 146.167969 238.828125 146.917969 239.226562 147.710938 239.554688 C 148.5 239.882812 149.316406 240.132812 150.15625 240.300781 C 150.996094 240.46875 151.84375 240.550781 152.699219 240.554688 Z M 152.699219 217.363281 C 153.367188 217.363281 154.027344 217.429688 154.679688 217.558594 C 155.332031 217.691406 155.964844 217.882812 156.582031 218.136719 C 157.199219 218.390625 157.78125 218.703125 158.335938 219.074219 C 158.890625 219.445312 159.402344 219.863281 159.875 220.335938 C 160.34375 220.808594 160.765625 221.320312 161.136719 221.875 C 161.503906 222.425781 161.816406 223.011719 162.074219 223.628906 C 162.328125 224.242188 162.519531 224.878906 162.648438 225.53125 C 162.78125 226.183594 162.84375 226.84375 162.84375 227.507812 C 162.84375 228.175781 162.78125 228.835938 162.648438 229.488281 C 162.519531 230.140625 162.328125 230.777344 162.074219 231.390625 C 161.816406 232.007812 161.503906 232.59375 161.136719 233.144531 C 160.765625 233.699219 160.34375 234.210938 159.875 234.683594 C 159.402344 235.152344 158.890625 235.574219 158.335938 235.945312 C 157.78125 236.316406 157.199219 236.628906 156.582031 236.882812 C 155.964844 237.136719 155.332031 237.328125 154.679688 237.460938 C 154.027344 237.589844 153.367188 237.65625 152.699219 237.65625 C 152.035156 237.65625 151.375 237.589844 150.71875 237.460938 C 150.066406 237.328125 149.433594 237.136719 148.816406 236.882812 C 148.203125 236.628906 147.617188 236.316406 147.0625 235.945312 C 146.507812 235.574219 145.996094 235.152344 145.527344 234.683594 C 145.054688 234.210938 144.632812 233.699219 144.265625 233.144531 C 143.894531 232.59375 143.582031 232.007812 143.328125 231.390625 C 143.070312 230.777344 142.878906 230.140625 142.75 229.488281 C 142.621094 228.835938 142.554688 228.175781 142.554688 227.507812 C 142.554688 226.84375 142.621094 226.183594 142.75 225.53125 C 142.882812 224.878906 143.074219 224.246094 143.332031 223.628906 C 143.585938 223.015625 143.898438 222.429688 144.269531 221.875 C 144.640625 221.324219 145.058594 220.8125 145.53125 220.339844 C 146 219.867188 146.511719 219.449219 147.066406 219.078125 C 147.621094 218.707031 148.203125 218.394531 148.820312 218.140625 C 149.433594 217.886719 150.070312 217.691406 150.722656 217.5625 C 151.375 217.429688 152.035156 217.367188 152.699219 217.363281 Z M 152.699219 217.363281 " fill-opacity="1" fill-rule="nonzero"/></g><path fill="#000000" d="M 213.90625 165.789062 L 211.855469 163.742188 L 209.800781 165.789062 L 212.875 168.863281 C 213.011719 169 213.167969 169.105469 213.34375 169.179688 C 213.523438 169.253906 213.707031 169.289062 213.898438 169.289062 C 214.09375 169.289062 214.277344 169.253906 214.453125 169.179688 C 214.632812 169.105469 214.789062 169 214.925781 168.863281 L 223.132812 160.667969 L 221.078125 158.617188 Z M 213.90625 165.789062 " fill-opacity="1" fill-rule="nonzero"/><path fill="#000000" d="M 153.425781 230.40625 L 151.976562 230.40625 C 151.773438 230.40625 151.605469 230.335938 151.460938 230.195312 C 151.320312 230.054688 151.25 229.882812 151.25 229.683594 L 148.351562 229.683594 C 148.351562 230.101562 148.421875 230.507812 148.5625 230.898438 C 148.703125 231.292969 148.90625 231.652344 149.167969 231.972656 C 149.433594 232.296875 149.742188 232.566406 150.101562 232.785156 C 150.457031 233 150.839844 233.148438 151.25 233.234375 L 151.25 234.757812 L 154.148438 234.757812 L 154.148438 233.234375 C 154.589844 233.144531 154.996094 232.976562 155.375 232.734375 C 155.753906 232.492188 156.074219 232.191406 156.339844 231.828125 C 156.605469 231.46875 156.796875 231.070312 156.917969 230.636719 C 157.035156 230.207031 157.070312 229.765625 157.027344 229.320312 C 156.980469 228.871094 156.855469 228.449219 156.65625 228.050781 C 156.453125 227.648438 156.183594 227.296875 155.851562 226.996094 C 155.519531 226.695312 155.144531 226.464844 154.726562 226.304688 C 154.304688 226.140625 153.871094 226.0625 153.425781 226.058594 L 151.976562 226.058594 C 151.773438 226.058594 151.605469 225.988281 151.460938 225.847656 C 151.320312 225.707031 151.25 225.535156 151.25 225.335938 C 151.25 225.136719 151.320312 224.964844 151.460938 224.824219 C 151.605469 224.683594 151.773438 224.609375 151.976562 224.609375 L 153.425781 224.609375 C 153.625 224.609375 153.796875 224.683594 153.9375 224.824219 C 154.078125 224.964844 154.148438 225.136719 154.148438 225.335938 L 157.046875 225.335938 C 157.046875 224.917969 156.976562 224.511719 156.835938 224.121094 C 156.695312 223.726562 156.496094 223.367188 156.230469 223.042969 C 155.964844 222.722656 155.65625 222.453125 155.296875 222.234375 C 154.941406 222.019531 154.558594 221.871094 154.148438 221.785156 L 154.148438 220.261719 L 151.25 220.261719 L 151.25 221.785156 C 150.8125 221.875 150.402344 222.042969 150.023438 222.285156 C 149.648438 222.527344 149.324219 222.828125 149.058594 223.191406 C 148.792969 223.550781 148.601562 223.949219 148.484375 224.382812 C 148.363281 224.8125 148.328125 225.253906 148.375 225.699219 C 148.417969 226.144531 148.542969 226.570312 148.746094 226.96875 C 148.949219 227.371094 149.214844 227.722656 149.546875 228.023438 C 149.878906 228.324219 150.253906 228.554688 150.675781 228.714844 C 151.09375 228.878906 151.527344 228.957031 151.976562 228.957031 L 153.425781 228.957031 C 153.625 228.957031 153.796875 229.03125 153.9375 229.171875 C 154.078125 229.3125 154.148438 229.484375 154.148438 229.683594 C 154.148438 229.882812 154.078125 230.054688 153.9375 230.195312 C 153.796875 230.335938 153.625 230.40625 153.425781 230.40625 Z M 153.425781 230.40625 " fill-opacity="1" fill-rule="nonzero"/><g clip-path="url(#514578860f)"><path fill="#000000" d="M 184.582031 233.308594 C 183.632812 233.308594 182.660156 233.253906 181.683594 233.175781 L 181.683594 230.40625 C 181.683594 230.148438 181.621094 229.902344 181.488281 229.679688 C 181.355469 229.453125 181.175781 229.277344 180.949219 229.148438 C 180.722656 229.019531 180.476562 228.957031 180.21875 228.960938 C 179.957031 228.960938 179.714844 229.03125 179.488281 229.167969 L 172.242188 233.515625 C 172.136719 233.578125 172.039062 233.65625 171.953125 233.746094 C 171.863281 233.835938 171.789062 233.933594 171.730469 234.042969 C 171.667969 234.152344 171.621094 234.265625 171.589844 234.386719 C 171.558594 234.507812 171.539062 234.632812 171.539062 234.757812 C 171.539062 234.882812 171.558594 235.003906 171.589844 235.125 C 171.621094 235.246094 171.667969 235.359375 171.730469 235.46875 C 171.789062 235.578125 171.863281 235.675781 171.953125 235.765625 C 172.039062 235.855469 172.136719 235.933594 172.242188 235.996094 L 179.488281 240.347656 C 179.714844 240.480469 179.957031 240.550781 180.21875 240.550781 C 180.476562 240.554688 180.722656 240.492188 180.949219 240.363281 C 181.175781 240.238281 181.355469 240.058594 181.488281 239.832031 C 181.621094 239.609375 181.683594 239.363281 181.683594 239.105469 L 181.683594 236.085938 C 182.660156 236.15625 183.632812 236.207031 184.582031 236.207031 C 185.390625 236.203125 186.199219 236.179688 187.003906 236.132812 C 187.8125 236.082031 188.617188 236.011719 189.417969 235.914062 C 190.21875 235.816406 191.019531 235.699219 191.8125 235.554688 C 192.609375 235.410156 193.398438 235.242188 194.183594 235.050781 C 194.96875 234.859375 195.746094 234.644531 196.515625 234.40625 C 197.289062 234.167969 198.054688 233.90625 198.808594 233.625 C 199.566406 233.339844 200.3125 233.035156 201.050781 232.707031 C 201.789062 232.378906 202.519531 232.027344 203.234375 231.65625 C 203.953125 231.285156 204.65625 230.894531 205.351562 230.480469 C 206.046875 230.066406 206.726562 229.632812 207.394531 229.179688 C 208.0625 228.722656 208.714844 228.25 209.355469 227.757812 C 209.996094 227.261719 210.621094 226.75 211.230469 226.222656 C 211.839844 225.691406 212.429688 225.140625 213.007812 224.574219 C 213.582031 224.011719 214.144531 223.425781 214.683594 222.828125 C 215.226562 222.230469 215.75 221.613281 216.253906 220.984375 C 216.757812 220.351562 217.246094 219.707031 217.710938 219.046875 C 218.175781 218.386719 218.625 217.714844 219.050781 217.03125 C 219.476562 216.34375 219.882812 215.644531 220.265625 214.933594 C 220.652344 214.222656 221.011719 213.503906 221.355469 212.769531 C 221.695312 212.039062 222.015625 211.296875 222.3125 210.546875 C 222.609375 209.796875 222.886719 209.035156 223.136719 208.269531 C 223.386719 207.5 223.617188 206.726562 223.824219 205.945312 C 224.027344 205.164062 224.210938 204.378906 224.371094 203.585938 C 224.527344 202.792969 224.664062 201.996094 224.773438 201.195312 C 224.886719 200.398438 224.972656 199.59375 225.035156 198.789062 C 225.097656 197.984375 225.136719 197.175781 225.152344 196.371094 C 225.167969 195.5625 225.160156 194.753906 225.125 193.949219 C 225.09375 193.140625 225.035156 192.335938 224.953125 191.53125 C 224.875 190.726562 224.769531 189.925781 224.640625 189.128906 C 224.511719 188.332031 224.359375 187.539062 224.179688 186.75 C 224.003906 185.960938 223.804688 185.179688 223.582031 184.402344 C 223.359375 183.628906 223.113281 182.859375 222.84375 182.097656 L 220.113281 183.066406 C 220.363281 183.773438 220.59375 184.488281 220.800781 185.210938 C 221.003906 185.929688 221.191406 186.65625 221.355469 187.390625 C 221.519531 188.121094 221.660156 188.855469 221.78125 189.597656 C 221.898438 190.339844 221.996094 191.082031 222.070312 191.828125 C 222.148438 192.574219 222.199219 193.320312 222.230469 194.070312 C 222.261719 194.820312 222.269531 195.570312 222.253906 196.320312 C 222.242188 197.070312 222.203125 197.820312 222.144531 198.566406 C 222.085938 199.3125 222.003906 200.058594 221.902344 200.800781 C 221.800781 201.546875 221.671875 202.285156 221.527344 203.019531 C 221.378906 203.753906 221.210938 204.484375 221.019531 205.210938 C 220.828125 205.9375 220.613281 206.65625 220.382812 207.367188 C 220.148438 208.082031 219.890625 208.785156 219.617188 209.484375 C 219.339844 210.179688 219.042969 210.867188 218.726562 211.546875 C 218.410156 212.226562 218.070312 212.898438 217.714844 213.558594 C 217.359375 214.21875 216.980469 214.863281 216.585938 215.503906 C 216.191406 216.140625 215.777344 216.765625 215.34375 217.375 C 214.910156 217.988281 214.457031 218.585938 213.988281 219.171875 C 213.519531 219.757812 213.035156 220.328125 212.53125 220.886719 C 212.027344 221.441406 211.511719 221.984375 210.976562 222.507812 C 210.441406 223.035156 209.890625 223.542969 209.324219 224.035156 C 208.757812 224.527344 208.179688 225.003906 207.585938 225.460938 C 206.992188 225.917969 206.382812 226.359375 205.761719 226.78125 C 205.144531 227.203125 204.511719 227.605469 203.867188 227.988281 C 203.222656 228.375 202.566406 228.738281 201.902344 229.082031 C 201.234375 229.429688 200.558594 229.753906 199.875 230.058594 C 199.1875 230.363281 198.496094 230.644531 197.792969 230.910156 C 197.089844 231.171875 196.378906 231.414062 195.664062 231.636719 C 194.945312 231.855469 194.222656 232.054688 193.496094 232.234375 C 192.765625 232.410156 192.035156 232.566406 191.296875 232.699219 C 190.558594 232.835938 189.816406 232.945312 189.070312 233.035156 C 188.328125 233.125 187.582031 233.191406 186.832031 233.238281 C 186.082031 233.285156 185.332031 233.304688 184.582031 233.308594 Z M 178.785156 236.542969 L 175.804688 234.757812 L 178.785156 232.96875 Z M 178.785156 236.542969 " fill-opacity="1" fill-rule="nonzero"/></g><g clip-path="url(#ad0ba1f51b)"><path fill="#000000" d="M 184.582031 157.945312 C 185.527344 157.945312 186.492188 157.992188 187.480469 158.066406 L 187.480469 160.84375 C 187.480469 161.105469 187.546875 161.347656 187.679688 161.574219 C 187.8125 161.796875 187.992188 161.976562 188.21875 162.105469 C 188.445312 162.234375 188.691406 162.296875 188.949219 162.292969 C 189.210938 162.289062 189.453125 162.21875 189.679688 162.085938 L 196.925781 157.738281 C 197.03125 157.671875 197.128906 157.59375 197.214844 157.507812 C 197.304688 157.417969 197.378906 157.316406 197.4375 157.207031 C 197.5 157.101562 197.546875 156.984375 197.578125 156.863281 C 197.609375 156.742188 197.625 156.621094 197.625 156.496094 C 197.625 156.371094 197.609375 156.246094 197.578125 156.125 C 197.546875 156.003906 197.5 155.890625 197.4375 155.78125 C 197.378906 155.671875 197.304688 155.574219 197.214844 155.484375 C 197.128906 155.394531 197.03125 155.316406 196.925781 155.253906 L 189.679688 150.90625 C 189.453125 150.769531 189.210938 150.703125 188.949219 150.699219 C 188.691406 150.695312 188.445312 150.757812 188.21875 150.886719 C 187.992188 151.015625 187.8125 151.191406 187.679688 151.417969 C 187.546875 151.644531 187.480469 151.886719 187.480469 152.148438 L 187.480469 155.160156 C 186.5 155.09375 185.53125 155.046875 184.582031 155.046875 C 183.777344 155.046875 182.96875 155.070312 182.164062 155.117188 C 181.355469 155.167969 180.550781 155.238281 179.75 155.335938 C 178.949219 155.433594 178.148438 155.554688 177.355469 155.699219 C 176.558594 155.84375 175.769531 156.011719 174.984375 156.199219 C 174.199219 156.390625 173.421875 156.605469 172.648438 156.84375 C 171.878906 157.082031 171.113281 157.34375 170.359375 157.625 C 169.601562 157.910156 168.855469 158.214844 168.117188 158.542969 C 167.378906 158.871094 166.648438 159.222656 165.933594 159.59375 C 165.214844 159.964844 164.507812 160.359375 163.816406 160.769531 C 163.121094 161.183594 162.441406 161.617188 161.773438 162.074219 C 161.105469 162.527344 160.453125 163 159.8125 163.496094 C 159.171875 163.988281 158.546875 164.5 157.9375 165.03125 C 157.328125 165.5625 156.738281 166.109375 156.160156 166.675781 C 155.582031 167.242188 155.023438 167.824219 154.484375 168.421875 C 153.941406 169.023438 153.417969 169.636719 152.914062 170.269531 C 152.410156 170.898438 151.921875 171.542969 151.457031 172.203125 C 150.988281 172.863281 150.542969 173.535156 150.117188 174.222656 C 149.691406 174.90625 149.285156 175.605469 148.902344 176.316406 C 148.515625 177.027344 148.152344 177.746094 147.8125 178.480469 C 147.472656 179.210938 147.152344 179.953125 146.855469 180.703125 C 146.558594 181.457031 146.28125 182.214844 146.03125 182.984375 C 145.777344 183.75 145.550781 184.523438 145.34375 185.304688 C 145.140625 186.085938 144.957031 186.875 144.796875 187.664062 C 144.640625 188.457031 144.503906 189.253906 144.394531 190.054688 C 144.28125 190.855469 144.195312 191.65625 144.132812 192.460938 C 144.070312 193.265625 144.03125 194.074219 144.015625 194.882812 C 144 195.6875 144.007812 196.496094 144.042969 197.304688 C 144.074219 198.109375 144.132812 198.917969 144.210938 199.71875 C 144.292969 200.523438 144.398438 201.324219 144.527344 202.121094 C 144.65625 202.917969 144.808594 203.710938 144.984375 204.5 C 145.164062 205.289062 145.363281 206.070312 145.585938 206.847656 C 145.808594 207.625 146.054688 208.394531 146.324219 209.15625 L 149.054688 208.183594 C 148.804688 207.476562 148.574219 206.761719 148.367188 206.042969 C 148.160156 205.320312 147.976562 204.59375 147.8125 203.863281 C 147.648438 203.128906 147.507812 202.394531 147.386719 201.652344 C 147.269531 200.914062 147.171875 200.167969 147.097656 199.421875 C 147.019531 198.675781 146.96875 197.929688 146.9375 197.179688 C 146.90625 196.429688 146.898438 195.679688 146.914062 194.929688 C 146.925781 194.179688 146.964844 193.433594 147.023438 192.683594 C 147.082031 191.9375 147.160156 191.191406 147.265625 190.449219 C 147.367188 189.707031 147.492188 188.964844 147.640625 188.230469 C 147.789062 187.496094 147.957031 186.765625 148.148438 186.039062 C 148.339844 185.316406 148.550781 184.597656 148.785156 183.882812 C 149.019531 183.171875 149.277344 182.464844 149.550781 181.769531 C 149.828125 181.070312 150.125 180.382812 150.441406 179.703125 C 150.757812 179.023438 151.09375 178.351562 151.453125 177.695312 C 151.808594 177.035156 152.1875 176.386719 152.582031 175.75 C 152.976562 175.113281 153.390625 174.488281 153.824219 173.875 C 154.257812 173.261719 154.710938 172.664062 155.179688 172.078125 C 155.648438 171.492188 156.132812 170.921875 156.636719 170.363281 C 157.136719 169.808594 157.65625 169.269531 158.191406 168.742188 C 158.726562 168.214844 159.277344 167.707031 159.84375 167.214844 C 160.410156 166.722656 160.988281 166.246094 161.582031 165.789062 C 162.175781 165.332031 162.785156 164.890625 163.40625 164.46875 C 164.023438 164.046875 164.65625 163.644531 165.300781 163.261719 C 165.945312 162.875 166.601562 162.511719 167.265625 162.167969 C 167.933594 161.824219 168.609375 161.496094 169.292969 161.191406 C 169.980469 160.886719 170.671875 160.605469 171.375 160.339844 C 172.078125 160.078125 172.785156 159.835938 173.503906 159.617188 C 174.21875 159.394531 174.941406 159.195312 175.671875 159.015625 C 176.402344 158.839844 177.132812 158.683594 177.871094 158.550781 C 178.609375 158.417969 179.351562 158.304688 180.097656 158.214844 C 180.839844 158.125 181.585938 158.058594 182.335938 158.011719 C 183.085938 157.96875 183.832031 157.945312 184.582031 157.945312 Z M 190.382812 154.707031 L 193.363281 156.496094 L 190.382812 158.28125 Z M 190.382812 154.707031 " fill-opacity="1" fill-rule="nonzero"/></g></svg>