<svg xmlns="http://www.w3.org/2000/svg" xmlns:xlink="http://www.w3.org/1999/xlink" width="500" zoomAndPan="magnify" viewBox="0 0 375 374.999991" height="500" preserveAspectRatio="xMidYMid meet" version="1.0"><defs><g/><clipPath id="bd4d06eaf6"><path d="M 203 150.699219 L 229.582031 150.699219 L 229.582031 177 L 203 177 Z M 203 150.699219 " clip-rule="nonzero"/></clipPath><clipPath id="023362fa91"><path d="M 139.582031 214 L 166 214 L 166 240.699219 L 139.582031 240.699219 Z M 139.582031 214 " clip-rule="nonzero"/></clipPath><clipPath id="70a940c941"><path d="M 171 182 L 225 182 L 225 240.699219 L 171 240.699219 Z M 171 182 " clip-rule="nonzero"/></clipPath><clipPath id="141f63667a"><path d="M 144 150.699219 L 198 150.699219 L 198 210 L 144 210 Z M 144 150.699219 " clip-rule="nonzero"/></clipPath></defs><g fill="#ffffff" fill-opacity="1"><g transform="translate(125.257644, 207.706213)"><g><path d="M -30.171875 -25.75 L 6.0625 -33.234375 L 4.546875 -24.96875 L -2.65625 -23.6875 L -5 -10.859375 L 1.296875 -7.109375 L -0.203125 1.15625 L -31.46875 -18.640625 Z M -9.875 -22.3125 L -20.375 -20.328125 L -20.390625 -20.25 L -11.265625 -14.703125 Z M -9.875 -22.3125 "/></g></g></g><g fill="#ffffff" fill-opacity="1"><g transform="translate(129.495018, 180.852088)"><g><path d="M -2.6875 -30.65625 C 0.226562 -31.175781 3.019531 -30.585938 5.6875 -28.890625 C 8.363281 -27.203125 10.085938 -24.929688 10.859375 -22.078125 C 11.628906 -19.234375 11.191406 -16.507812 9.546875 -13.90625 C 8.035156 -11.519531 5.929688 -10.085938 3.234375 -9.609375 L 3.203125 -9.546875 L 5.234375 -8.265625 L 1.34375 -2.109375 L -28.875 -21.234375 L -24.953125 -27.453125 L -11.046875 -18.65625 C -11.554688 -21.15625 -11.054688 -23.597656 -9.546875 -25.984375 C -7.898438 -28.585938 -5.613281 -30.144531 -2.6875 -30.65625 Z M 3.8125 -19.1875 C 3.519531 -20.457031 2.75 -21.484375 1.5 -22.265625 C 0.257812 -23.054688 -1.007812 -23.300781 -2.3125 -23 C -3.625 -22.707031 -4.660156 -21.960938 -5.421875 -20.765625 C -6.160156 -19.585938 -6.382812 -18.34375 -6.09375 -17.03125 C -5.8125 -15.71875 -5.046875 -14.664062 -3.796875 -13.875 C -2.585938 -13.101562 -1.335938 -12.859375 -0.046875 -13.140625 C 1.242188 -13.429688 2.273438 -14.1875 3.046875 -15.40625 C 3.847656 -16.664062 4.101562 -17.925781 3.8125 -19.1875 Z M 3.8125 -19.1875 "/></g></g></g><g fill="#ffffff" fill-opacity="1"><g transform="translate(141.142225, 160.716293)"><g><path d="M 8.140625 -29.671875 C 11.054688 -29.140625 13.472656 -27.613281 15.390625 -25.09375 C 17.304688 -22.582031 18.128906 -19.851562 17.859375 -16.90625 C 17.585938 -13.96875 16.226562 -11.566406 13.78125 -9.703125 C 11.53125 -7.992188 9.066406 -7.390625 6.390625 -7.890625 L 6.328125 -7.84375 L 7.78125 -5.921875 L 1.984375 -1.515625 L -19.6875 -29.96875 L -13.828125 -34.421875 L -3.84375 -21.328125 C -3.46875 -23.859375 -2.15625 -25.976562 0.09375 -27.6875 C 2.539062 -29.550781 5.222656 -30.210938 8.140625 -29.671875 Z M 10.25 -16.671875 C 10.414062 -17.960938 10.050781 -19.191406 9.15625 -20.359375 C 8.257812 -21.535156 7.148438 -22.207031 5.828125 -22.375 C 4.503906 -22.550781 3.273438 -22.210938 2.140625 -21.359375 C 1.046875 -20.515625 0.398438 -19.425781 0.203125 -18.09375 C 0.00390625 -16.769531 0.351562 -15.519531 1.25 -14.34375 C 2.125 -13.195312 3.21875 -12.53125 4.53125 -12.34375 C 5.851562 -12.15625 7.082031 -12.5 8.21875 -13.375 C 9.414062 -14.28125 10.09375 -15.378906 10.25 -16.671875 Z M 10.25 -16.671875 "/></g></g></g><g fill="#ffffff" fill-opacity="1"><g transform="translate(159.158064, 145.96045)"><g><path d="M 3.546875 -3.765625 C 0.660156 -5.078125 -1.269531 -7.304688 -2.25 -10.453125 C -3.226562 -13.597656 -2.851562 -16.550781 -1.125 -19.3125 C 0.601562 -22.082031 3.203125 -24.003906 6.671875 -25.078125 C 10.085938 -26.140625 13.28125 -26.015625 16.25 -24.703125 C 19.226562 -23.390625 21.203125 -21.164062 22.171875 -18.03125 C 23.148438 -14.90625 22.804688 -11.972656 21.140625 -9.234375 C 19.484375 -6.503906 16.894531 -4.59375 13.375 -3.5 C 9.71875 -2.363281 6.441406 -2.453125 3.546875 -3.765625 Z M 5.515625 -16.65625 C 4.890625 -15.476562 4.796875 -14.1875 5.234375 -12.78125 C 5.671875 -11.375 6.460938 -10.363281 7.609375 -9.75 C 8.753906 -9.132812 10.039062 -9.046875 11.46875 -9.484375 C 12.851562 -9.921875 13.847656 -10.722656 14.453125 -11.890625 C 15.054688 -13.066406 15.144531 -14.335938 14.71875 -15.703125 C 14.28125 -17.117188 13.460938 -18.132812 12.265625 -18.75 C 11.066406 -19.375 9.804688 -19.476562 8.484375 -19.0625 C 7.128906 -18.644531 6.140625 -17.84375 5.515625 -16.65625 Z M 5.515625 -16.65625 "/></g></g></g><g fill="#ffffff" fill-opacity="1"><g transform="translate(180.289796, 138.448847)"><g><path d="M 4 -34.171875 L 14.625 -33.703125 C 17.84375 -33.566406 20.375 -32.769531 22.21875 -31.3125 C 24.070312 -29.863281 24.929688 -27.597656 24.796875 -24.515625 C 24.648438 -21.085938 23.117188 -18.703125 20.203125 -17.359375 C 25.035156 -16.273438 27.347656 -13.28125 27.140625 -8.375 C 27.015625 -5.5 25.914062 -3.234375 23.84375 -1.578125 C 21.769531 0.078125 18.988281 0.828125 15.5 0.671875 L 2.5 0.109375 Z M 11.203125 -20.40625 L 11.828125 -20.390625 C 13.578125 -20.304688 14.894531 -20.550781 15.78125 -21.125 C 16.664062 -21.695312 17.140625 -22.675781 17.203125 -24.0625 C 17.304688 -26.382812 15.625 -27.625 12.15625 -27.78125 L 11.53125 -27.796875 Z M 10.5625 -5.578125 L 13.015625 -5.46875 C 16.847656 -5.300781 18.816406 -6.488281 18.921875 -9.03125 C 18.992188 -10.550781 18.5625 -11.664062 17.625 -12.375 C 16.695312 -13.082031 15.273438 -13.476562 13.359375 -13.5625 L 10.90625 -13.671875 Z M 10.5625 -5.578125 "/></g></g></g><g fill="#ffffff" fill-opacity="1"><g transform="translate(202.923238, 138.587594)"><g><path d="M 16.78125 -16.203125 L 12.953125 -6.796875 C 12.160156 -4.847656 11.890625 -3.34375 12.140625 -2.28125 C 12.398438 -1.21875 13.238281 -0.398438 14.65625 0.171875 C 16.070312 0.753906 17.242188 0.753906 18.171875 0.171875 C 19.097656 -0.410156 19.957031 -1.675781 20.75 -3.625 L 24.578125 -13.03125 L 31.390625 -10.25 L 26.890625 0.8125 C 25.546875 4.09375 23.722656 6.109375 21.421875 6.859375 C 19.128906 7.617188 16.117188 7.238281 12.390625 5.71875 C 8.671875 4.207031 6.25 2.375 5.125 0.21875 C 4.007812 -1.925781 4.125 -4.640625 5.46875 -7.921875 L 9.96875 -18.984375 Z M 16.78125 -16.203125 "/></g></g></g><g fill="#ffffff" fill-opacity="1"><g transform="translate(223.847962, 146.042777)"><g><path d="M 4.703125 0.6875 C 4.679688 -2.257812 5.726562 -4.90625 7.84375 -7.25 C 9.96875 -9.601562 12.503906 -10.921875 15.453125 -11.203125 C 18.410156 -11.492188 21.03125 -10.609375 23.3125 -8.546875 C 25.414062 -6.640625 26.539062 -4.414062 26.6875 -1.875 L 37.734375 -14.09375 L 43.203125 -9.15625 L 19.21875 17.375 L 13.828125 12.5 L 15.4375 10.71875 L 15.359375 10.65625 C 12.660156 10.9375 10.257812 10.125 8.15625 8.21875 C 5.875 6.15625 4.722656 3.644531 4.703125 0.6875 Z M 17.140625 -3.734375 C 15.804688 -3.671875 14.644531 -3.09375 13.65625 -2 C 12.664062 -0.914062 12.195312 0.269531 12.25 1.5625 C 12.3125 2.863281 12.894531 4.019531 14 5.03125 C 15.082031 6 16.28125 6.441406 17.59375 6.359375 C 18.914062 6.285156 20.0625 5.71875 21.03125 4.65625 C 22.019531 3.5625 22.472656 2.34375 22.390625 1 C 22.304688 -0.34375 21.75 -1.476562 20.71875 -2.40625 C 19.675781 -3.351562 18.484375 -3.796875 17.140625 -3.734375 Z M 17.140625 -3.734375 "/></g></g></g><g fill="#ffffff" fill-opacity="1"><g transform="translate(241.711167, 160.942895)"><g><path d="M 4.15625 2.28125 C 5.164062 -0.5 7.070312 -2.617188 9.875 -4.078125 C 12.6875 -5.535156 15.523438 -5.878906 18.390625 -5.109375 C 21.253906 -4.347656 23.398438 -2.609375 24.828125 0.109375 C 26.128906 2.628906 26.410156 5.109375 25.671875 7.546875 L 40.28125 -0.0625 L 43.6875 6.46875 L 11.96875 22.984375 L 8.609375 16.53125 L 10.75 15.421875 L 10.703125 15.34375 C 8.066406 14.65625 6.097656 13.050781 4.796875 10.53125 C 3.367188 7.8125 3.15625 5.0625 4.15625 2.28125 Z M 17.375 2.453125 C 16.101562 2.046875 14.8125 2.179688 13.5 2.859375 C 12.195312 3.546875 11.34375 4.507812 10.9375 5.75 C 10.53125 6.988281 10.675781 8.269531 11.375 9.59375 C 12.039062 10.882812 13.003906 11.722656 14.265625 12.109375 C 15.535156 12.492188 16.804688 12.359375 18.078125 11.703125 C 19.390625 11.015625 20.242188 10.023438 20.640625 8.734375 C 21.035156 7.441406 20.914062 6.179688 20.28125 4.953125 C 19.625 3.703125 18.65625 2.867188 17.375 2.453125 Z M 17.375 2.453125 "/></g></g></g><g fill="#ffffff" fill-opacity="1"><g transform="translate(253.099251, 181.295709)"><g><path d="M 23.71875 15.5625 L 24.890625 23.953125 L -9.265625 11.796875 L -10.4375 3.375 L 4.578125 8.734375 L 21.03125 -3.75 L 22.203125 4.640625 L 12.1875 12.03125 Z M 23.71875 15.5625 "/></g></g></g><path fill="#ffffff" d="M 200.40625 179.625 L 172.925781 179.625 C 172.640625 179.625 172.355469 179.65625 172.078125 179.710938 C 171.796875 179.765625 171.527344 179.847656 171.265625 179.957031 C 171 180.066406 170.75 180.199219 170.511719 180.359375 C 170.277344 180.515625 170.058594 180.695312 169.855469 180.898438 C 169.65625 181.097656 169.476562 181.320312 169.316406 181.554688 C 169.15625 181.792969 169.023438 182.042969 168.914062 182.304688 C 168.804688 182.570312 168.722656 182.839844 168.667969 183.121094 C 168.613281 183.398438 168.585938 183.679688 168.585938 183.964844 L 168.585938 210.003906 C 168.585938 210.289062 168.613281 210.570312 168.667969 210.847656 C 168.722656 211.128906 168.804688 211.398438 168.914062 211.664062 C 169.023438 211.925781 169.15625 212.175781 169.316406 212.414062 C 169.476562 212.648438 169.65625 212.867188 169.855469 213.070312 C 170.058594 213.273438 170.277344 213.453125 170.511719 213.609375 C 170.75 213.769531 171 213.902344 171.265625 214.011719 C 171.527344 214.121094 171.796875 214.203125 172.078125 214.257812 C 172.355469 214.3125 172.640625 214.339844 172.925781 214.339844 L 196.066406 214.339844 C 196.46875 214.339844 196.808594 214.199219 197.089844 213.917969 L 204.324219 206.683594 C 204.605469 206.402344 204.746094 206.0625 204.746094 205.664062 L 204.746094 183.964844 C 204.746094 183.679688 204.71875 183.398438 204.664062 183.121094 C 204.605469 182.839844 204.523438 182.570312 204.414062 182.304688 C 204.308594 182.042969 204.171875 181.792969 204.015625 181.554688 C 203.855469 181.320312 203.675781 181.097656 203.476562 180.898438 C 203.273438 180.695312 203.054688 180.515625 202.816406 180.359375 C 202.582031 180.199219 202.332031 180.066406 202.066406 179.957031 C 201.804688 179.847656 201.53125 179.765625 201.253906 179.710938 C 200.972656 179.65625 200.691406 179.625 200.40625 179.625 Z M 197.515625 209.402344 L 197.515625 207.109375 L 199.808594 207.109375 Z M 201.851562 204.214844 L 196.066406 204.214844 C 195.875 204.214844 195.691406 204.253906 195.515625 204.328125 C 195.335938 204.398438 195.179688 204.503906 195.042969 204.640625 C 194.910156 204.777344 194.804688 204.933594 194.730469 205.109375 C 194.65625 205.285156 194.621094 205.472656 194.621094 205.664062 L 194.621094 211.449219 L 172.925781 211.449219 C 172.734375 211.449219 172.546875 211.410156 172.371094 211.339844 C 172.195312 211.265625 172.039062 211.160156 171.902344 211.023438 C 171.765625 210.890625 171.660156 210.734375 171.589844 210.554688 C 171.515625 210.378906 171.476562 210.195312 171.476562 210.003906 L 171.476562 188.304688 L 201.851562 188.304688 Z M 201.851562 185.414062 L 171.476562 185.414062 L 171.476562 183.964844 C 171.476562 183.773438 171.515625 183.589844 171.589844 183.414062 C 171.660156 183.234375 171.765625 183.078125 171.902344 182.945312 C 172.039062 182.808594 172.195312 182.703125 172.371094 182.628906 C 172.546875 182.554688 172.734375 182.519531 172.925781 182.519531 L 200.40625 182.519531 C 200.597656 182.519531 200.78125 182.554688 200.960938 182.628906 C 201.136719 182.703125 201.292969 182.808594 201.429688 182.945312 C 201.566406 183.078125 201.667969 183.234375 201.742188 183.414062 C 201.816406 183.589844 201.851562 183.773438 201.851562 183.964844 Z M 201.851562 185.414062 " fill-opacity="1" fill-rule="nonzero"/><path fill="#ffffff" d="M 181.601562 192.644531 L 184.496094 192.644531 L 184.496094 195.539062 L 181.601562 195.539062 Z M 181.601562 192.644531 " fill-opacity="1" fill-rule="nonzero"/><path fill="#ffffff" d="M 188.835938 192.644531 L 191.726562 192.644531 L 191.726562 195.539062 L 188.835938 195.539062 Z M 188.835938 192.644531 " fill-opacity="1" fill-rule="nonzero"/><path fill="#ffffff" d="M 196.066406 192.644531 L 198.960938 192.644531 L 198.960938 195.539062 L 196.066406 195.539062 Z M 196.066406 192.644531 " fill-opacity="1" fill-rule="nonzero"/><path fill="#ffffff" d="M 181.601562 198.429688 L 184.496094 198.429688 L 184.496094 201.324219 L 181.601562 201.324219 Z M 181.601562 198.429688 " fill-opacity="1" fill-rule="nonzero"/><path fill="#ffffff" d="M 174.371094 198.429688 L 177.265625 198.429688 L 177.265625 201.324219 L 174.371094 201.324219 Z M 174.371094 198.429688 " fill-opacity="1" fill-rule="nonzero"/><path fill="#ffffff" d="M 188.835938 198.429688 L 191.726562 198.429688 L 191.726562 201.324219 L 188.835938 201.324219 Z M 188.835938 198.429688 " fill-opacity="1" fill-rule="nonzero"/><path fill="#ffffff" d="M 181.601562 204.214844 L 184.496094 204.214844 L 184.496094 207.109375 L 181.601562 207.109375 Z M 181.601562 204.214844 " fill-opacity="1" fill-rule="nonzero"/><path fill="#ffffff" d="M 174.371094 204.214844 L 177.265625 204.214844 L 177.265625 207.109375 L 174.371094 207.109375 Z M 174.371094 204.214844 " fill-opacity="1" fill-rule="nonzero"/><path fill="#ffffff" d="M 188.835938 204.214844 L 191.726562 204.214844 L 191.726562 207.109375 L 188.835938 207.109375 Z M 188.835938 204.214844 " fill-opacity="1" fill-rule="nonzero"/><path fill="#ffffff" d="M 196.066406 198.429688 L 198.960938 198.429688 L 198.960938 201.324219 L 196.066406 201.324219 Z M 196.066406 198.429688 " fill-opacity="1" fill-rule="nonzero"/><g clip-path="url(#bd4d06eaf6)"><path fill="#ffffff" d="M 216.316406 150.699219 C 215.464844 150.699219 214.617188 150.78125 213.777344 150.949219 C 212.941406 151.113281 212.125 151.363281 211.335938 151.6875 C 210.546875 152.015625 209.796875 152.417969 209.085938 152.890625 C 208.375 153.367188 207.71875 153.90625 207.113281 154.511719 C 206.507812 155.117188 205.96875 155.773438 205.492188 156.484375 C 205.019531 157.195312 204.617188 157.945312 204.289062 158.734375 C 203.964844 159.523438 203.714844 160.339844 203.550781 161.175781 C 203.382812 162.015625 203.300781 162.859375 203.300781 163.714844 C 203.300781 164.570312 203.382812 165.417969 203.550781 166.253906 C 203.714844 167.09375 203.964844 167.90625 204.289062 168.699219 C 204.617188 169.488281 205.019531 170.238281 205.492188 170.949219 C 205.96875 171.660156 206.507812 172.316406 207.113281 172.921875 C 207.71875 173.527344 208.375 174.066406 209.085938 174.539062 C 209.796875 175.015625 210.546875 175.414062 211.335938 175.742188 C 212.125 176.070312 212.941406 176.316406 213.777344 176.484375 C 214.617188 176.652344 215.464844 176.734375 216.316406 176.734375 C 217.171875 176.734375 218.019531 176.652344 218.855469 176.484375 C 219.695312 176.316406 220.507812 176.070312 221.300781 175.742188 C 222.089844 175.414062 222.839844 175.015625 223.550781 174.539062 C 224.261719 174.066406 224.917969 173.527344 225.523438 172.921875 C 226.128906 172.316406 226.667969 171.660156 227.140625 170.949219 C 227.617188 170.238281 228.019531 169.488281 228.34375 168.699219 C 228.671875 167.90625 228.917969 167.09375 229.085938 166.253906 C 229.253906 165.417969 229.335938 164.570312 229.335938 163.714844 C 229.335938 162.863281 229.25 162.015625 229.082031 161.175781 C 228.914062 160.339844 228.667969 159.527344 228.339844 158.738281 C 228.011719 157.945312 227.613281 157.199219 227.136719 156.488281 C 226.664062 155.777344 226.121094 155.121094 225.519531 154.515625 C 224.914062 153.910156 224.257812 153.371094 223.546875 152.894531 C 222.835938 152.421875 222.085938 152.019531 221.296875 151.691406 C 220.507812 151.367188 219.695312 151.117188 218.855469 150.949219 C 218.019531 150.78125 217.171875 150.699219 216.316406 150.699219 Z M 216.316406 173.839844 C 215.652344 173.839844 214.996094 173.777344 214.34375 173.648438 C 213.691406 173.515625 213.058594 173.324219 212.441406 173.070312 C 211.828125 172.816406 211.246094 172.503906 210.691406 172.132812 C 210.140625 171.765625 209.628906 171.34375 209.15625 170.875 C 208.6875 170.40625 208.269531 169.894531 207.898438 169.339844 C 207.53125 168.789062 207.21875 168.203125 206.964844 167.589844 C 206.707031 166.976562 206.515625 166.34375 206.386719 165.691406 C 206.257812 165.039062 206.191406 164.378906 206.191406 163.714844 C 206.191406 163.050781 206.257812 162.394531 206.386719 161.742188 C 206.515625 161.089844 206.707031 160.457031 206.964844 159.839844 C 207.21875 159.226562 207.53125 158.644531 207.898438 158.089844 C 208.269531 157.539062 208.6875 157.027344 209.15625 156.554688 C 209.628906 156.085938 210.140625 155.667969 210.691406 155.296875 C 211.246094 154.929688 211.828125 154.617188 212.441406 154.363281 C 213.058594 154.105469 213.691406 153.914062 214.34375 153.785156 C 214.996094 153.65625 215.652344 153.589844 216.316406 153.589844 C 216.984375 153.589844 217.640625 153.65625 218.292969 153.785156 C 218.945312 153.914062 219.578125 154.105469 220.191406 154.363281 C 220.804688 154.617188 221.390625 154.929688 221.941406 155.296875 C 222.496094 155.667969 223.007812 156.085938 223.476562 156.554688 C 223.949219 157.027344 224.367188 157.539062 224.738281 158.089844 C 225.105469 158.644531 225.417969 159.226562 225.671875 159.839844 C 225.925781 160.457031 226.117188 161.089844 226.25 161.742188 C 226.378906 162.394531 226.441406 163.050781 226.441406 163.714844 C 226.441406 164.378906 226.375 165.039062 226.246094 165.691406 C 226.117188 166.34375 225.921875 166.976562 225.667969 167.589844 C 225.414062 168.203125 225.101562 168.785156 224.730469 169.339844 C 224.363281 169.890625 223.941406 170.402344 223.472656 170.871094 C 223.003906 171.339844 222.492188 171.761719 221.941406 172.128906 C 221.386719 172.5 220.804688 172.8125 220.191406 173.066406 C 219.578125 173.320312 218.945312 173.515625 218.292969 173.644531 C 217.640625 173.773438 216.980469 173.839844 216.316406 173.839844 Z M 216.316406 173.839844 " fill-opacity="1" fill-rule="nonzero"/></g><g clip-path="url(#023362fa91)"><path fill="#ffffff" d="M 152.675781 240.378906 C 153.527344 240.378906 154.375 240.292969 155.214844 240.128906 C 156.050781 239.960938 156.867188 239.714844 157.65625 239.386719 C 158.445312 239.058594 159.195312 238.660156 159.90625 238.183594 C 160.617188 237.707031 161.273438 237.167969 161.878906 236.566406 C 162.484375 235.960938 163.023438 235.300781 163.5 234.59375 C 163.972656 233.882812 164.375 233.132812 164.703125 232.339844 C 165.027344 231.550781 165.273438 230.738281 165.441406 229.898438 C 165.609375 229.0625 165.691406 228.214844 165.691406 227.359375 C 165.691406 226.503906 165.609375 225.65625 165.441406 224.820312 C 165.273438 223.980469 165.027344 223.167969 164.703125 222.378906 C 164.375 221.589844 163.972656 220.835938 163.5 220.128906 C 163.023438 219.417969 162.484375 218.757812 161.878906 218.15625 C 161.273438 217.550781 160.617188 217.011719 159.90625 216.535156 C 159.195312 216.0625 158.445312 215.660156 157.65625 215.332031 C 156.867188 215.003906 156.050781 214.757812 155.214844 214.589844 C 154.375 214.425781 153.527344 214.339844 152.675781 214.339844 C 151.820312 214.339844 150.972656 214.425781 150.132812 214.589844 C 149.296875 214.757812 148.480469 215.003906 147.691406 215.332031 C 146.902344 215.660156 146.152344 216.0625 145.441406 216.535156 C 144.730469 217.011719 144.074219 217.550781 143.46875 218.15625 C 142.863281 218.757812 142.324219 219.417969 141.851562 220.128906 C 141.375 220.835938 140.972656 221.589844 140.648438 222.378906 C 140.320312 223.167969 140.074219 223.980469 139.90625 224.820312 C 139.738281 225.65625 139.65625 226.503906 139.65625 227.359375 C 139.65625 228.214844 139.742188 229.058594 139.910156 229.898438 C 140.074219 230.734375 140.324219 231.550781 140.652344 232.339844 C 140.976562 233.128906 141.378906 233.878906 141.855469 234.589844 C 142.328125 235.300781 142.867188 235.957031 143.472656 236.558594 C 144.078125 237.164062 144.734375 237.703125 145.445312 238.179688 C 146.15625 238.652344 146.90625 239.054688 147.695312 239.382812 C 148.484375 239.710938 149.296875 239.957031 150.136719 240.125 C 150.972656 240.292969 151.820312 240.375 152.675781 240.378906 Z M 152.675781 217.234375 C 153.339844 217.234375 153.996094 217.300781 154.648438 217.429688 C 155.300781 217.558594 155.933594 217.75 156.550781 218.003906 C 157.164062 218.257812 157.746094 218.570312 158.300781 218.941406 C 158.851562 219.308594 159.363281 219.730469 159.832031 220.199219 C 160.304688 220.671875 160.722656 221.179688 161.09375 221.734375 C 161.460938 222.285156 161.773438 222.871094 162.027344 223.484375 C 162.28125 224.097656 162.476562 224.730469 162.605469 225.382812 C 162.734375 226.035156 162.800781 226.695312 162.800781 227.359375 C 162.800781 228.023438 162.734375 228.683594 162.605469 229.335938 C 162.476562 229.988281 162.28125 230.621094 162.027344 231.234375 C 161.773438 231.847656 161.460938 232.433594 161.09375 232.984375 C 160.722656 233.539062 160.304688 234.050781 159.832031 234.519531 C 159.363281 234.988281 158.851562 235.410156 158.300781 235.777344 C 157.746094 236.148438 157.164062 236.460938 156.550781 236.714844 C 155.933594 236.96875 155.300781 237.160156 154.648438 237.289062 C 153.996094 237.417969 153.339844 237.484375 152.675781 237.484375 C 152.007812 237.484375 151.351562 237.417969 150.699219 237.289062 C 150.046875 237.160156 149.414062 236.96875 148.800781 236.714844 C 148.183594 236.460938 147.601562 236.148438 147.050781 235.777344 C 146.496094 235.410156 145.984375 234.988281 145.515625 234.519531 C 145.042969 234.050781 144.625 233.539062 144.253906 232.984375 C 143.886719 232.433594 143.574219 231.847656 143.320312 231.234375 C 143.066406 230.621094 142.875 229.988281 142.742188 229.335938 C 142.613281 228.683594 142.550781 228.023438 142.550781 227.359375 C 142.550781 226.695312 142.617188 226.035156 142.746094 225.386719 C 142.875 224.734375 143.070312 224.101562 143.324219 223.488281 C 143.578125 222.871094 143.890625 222.289062 144.257812 221.738281 C 144.628906 221.183594 145.046875 220.671875 145.519531 220.203125 C 145.988281 219.734375 146.5 219.3125 147.050781 218.945312 C 147.605469 218.574219 148.1875 218.261719 148.800781 218.007812 C 149.414062 217.753906 150.046875 217.5625 150.699219 217.429688 C 151.351562 217.300781 152.007812 217.234375 152.675781 217.234375 Z M 152.675781 217.234375 " fill-opacity="1" fill-rule="nonzero"/></g><path fill="#ffffff" d="M 213.761719 165.761719 L 211.714844 163.714844 L 209.664062 165.761719 L 212.730469 168.828125 C 212.867188 168.964844 213.023438 169.070312 213.199219 169.144531 C 213.378906 169.214844 213.5625 169.253906 213.753906 169.253906 C 213.945312 169.253906 214.128906 169.214844 214.308594 169.144531 C 214.484375 169.070312 214.640625 168.964844 214.777344 168.828125 L 222.972656 160.648438 L 220.921875 158.601562 Z M 213.761719 165.761719 " fill-opacity="1" fill-rule="nonzero"/><path fill="#ffffff" d="M 153.398438 230.253906 L 151.949219 230.253906 C 151.75 230.253906 151.582031 230.183594 151.441406 230.039062 C 151.296875 229.898438 151.226562 229.730469 151.226562 229.527344 L 148.335938 229.527344 C 148.335938 229.945312 148.40625 230.351562 148.542969 230.742188 C 148.683594 231.136719 148.886719 231.492188 149.148438 231.816406 C 149.414062 232.136719 149.722656 232.40625 150.082031 232.625 C 150.4375 232.839844 150.820312 232.988281 151.226562 233.070312 L 151.226562 234.589844 L 154.121094 234.589844 L 154.121094 233.070312 C 154.558594 232.980469 154.96875 232.816406 155.34375 232.574219 C 155.722656 232.332031 156.042969 232.03125 156.308594 231.671875 C 156.574219 231.308594 156.765625 230.914062 156.882812 230.480469 C 157 230.050781 157.035156 229.609375 156.992188 229.164062 C 156.945312 228.71875 156.824219 228.296875 156.621094 227.898438 C 156.417969 227.5 156.152344 227.148438 155.820312 226.847656 C 155.488281 226.546875 155.113281 226.316406 154.695312 226.15625 C 154.277344 225.996094 153.84375 225.914062 153.398438 225.914062 L 151.949219 225.914062 C 151.75 225.914062 151.582031 225.84375 151.441406 225.703125 C 151.296875 225.558594 151.226562 225.390625 151.226562 225.191406 C 151.226562 224.988281 151.296875 224.820312 151.441406 224.679688 C 151.582031 224.539062 151.75 224.464844 151.949219 224.464844 L 153.398438 224.464844 C 153.597656 224.464844 153.765625 224.539062 153.910156 224.679688 C 154.050781 224.820312 154.121094 224.988281 154.121094 225.191406 L 157.011719 225.191406 C 157.011719 224.773438 156.945312 224.367188 156.804688 223.976562 C 156.664062 223.582031 156.460938 223.226562 156.199219 222.902344 C 155.933594 222.582031 155.625 222.3125 155.269531 222.097656 C 154.910156 221.878906 154.527344 221.730469 154.121094 221.648438 L 154.121094 220.128906 L 151.226562 220.128906 L 151.226562 221.648438 C 150.789062 221.738281 150.382812 221.902344 150.003906 222.144531 C 149.628906 222.386719 149.304688 222.6875 149.039062 223.046875 C 148.777344 223.410156 148.582031 223.804688 148.464844 224.238281 C 148.347656 224.667969 148.3125 225.109375 148.355469 225.554688 C 148.402344 226 148.523438 226.421875 148.726562 226.820312 C 148.929688 227.21875 149.195312 227.570312 149.527344 227.871094 C 149.859375 228.171875 150.234375 228.402344 150.652344 228.5625 C 151.070312 228.726562 151.503906 228.804688 151.949219 228.804688 L 153.398438 228.804688 C 153.597656 228.804688 153.765625 228.875 153.910156 229.019531 C 154.050781 229.160156 154.121094 229.328125 154.121094 229.527344 C 154.121094 229.730469 154.050781 229.898438 153.910156 230.039062 C 153.765625 230.183594 153.597656 230.253906 153.398438 230.253906 Z M 153.398438 230.253906 " fill-opacity="1" fill-rule="nonzero"/><g clip-path="url(#70a940c941)"><path fill="#ffffff" d="M 184.496094 233.144531 C 183.546875 233.144531 182.578125 233.09375 181.601562 233.015625 L 181.601562 230.253906 C 181.601562 229.992188 181.539062 229.75 181.40625 229.523438 C 181.273438 229.296875 181.09375 229.121094 180.867188 228.992188 C 180.640625 228.867188 180.398438 228.804688 180.136719 228.804688 C 179.878906 228.808594 179.636719 228.878906 179.410156 229.011719 L 172.179688 233.351562 C 172.074219 233.417969 171.976562 233.492188 171.886719 233.582031 C 171.800781 233.671875 171.726562 233.769531 171.664062 233.878906 C 171.605469 233.988281 171.558594 234.101562 171.527344 234.222656 C 171.496094 234.34375 171.476562 234.46875 171.476562 234.589844 C 171.476562 234.714844 171.496094 234.839844 171.527344 234.960938 C 171.558594 235.082031 171.605469 235.195312 171.664062 235.304688 C 171.726562 235.414062 171.800781 235.511719 171.886719 235.601562 C 171.976562 235.691406 172.074219 235.765625 172.179688 235.832031 L 179.410156 240.171875 C 179.636719 240.304688 179.878906 240.375 180.136719 240.378906 C 180.398438 240.378906 180.640625 240.316406 180.867188 240.191406 C 181.09375 240.0625 181.273438 239.882812 181.40625 239.660156 C 181.539062 239.433594 181.601562 239.191406 181.601562 238.929688 L 181.601562 235.917969 C 182.578125 235.988281 183.546875 236.039062 184.496094 236.039062 C 185.300781 236.039062 186.109375 236.011719 186.914062 235.964844 C 187.71875 235.917969 188.519531 235.84375 189.320312 235.746094 C 190.121094 235.652344 190.917969 235.53125 191.710938 235.386719 C 192.503906 235.242188 193.292969 235.074219 194.074219 234.886719 C 194.859375 234.695312 195.636719 234.480469 196.40625 234.242188 C 197.175781 234.003906 197.9375 233.746094 198.695312 233.460938 C 199.449219 233.179688 200.195312 232.875 200.933594 232.546875 C 201.667969 232.21875 202.394531 231.871094 203.109375 231.5 C 203.828125 231.128906 204.53125 230.738281 205.222656 230.324219 C 205.914062 229.910156 206.59375 229.476562 207.261719 229.023438 C 207.929688 228.570312 208.582031 228.097656 209.21875 227.605469 C 209.859375 227.113281 210.480469 226.601562 211.089844 226.074219 C 211.695312 225.542969 212.289062 224.996094 212.863281 224.433594 C 213.4375 223.867188 213.996094 223.285156 214.539062 222.6875 C 215.078125 222.089844 215.601562 221.476562 216.105469 220.847656 C 216.609375 220.214844 217.09375 219.574219 217.558594 218.914062 C 218.023438 218.257812 218.46875 217.585938 218.894531 216.898438 C 219.320312 216.214844 219.726562 215.519531 220.109375 214.808594 C 220.492188 214.101562 220.855469 213.378906 221.195312 212.648438 C 221.535156 211.917969 221.855469 211.179688 222.152344 210.429688 C 222.449219 209.679688 222.722656 208.921875 222.972656 208.15625 C 223.226562 207.390625 223.453125 206.617188 223.660156 205.835938 C 223.863281 205.058594 224.046875 204.273438 224.203125 203.480469 C 224.363281 202.691406 224.496094 201.898438 224.609375 201.097656 C 224.71875 200.300781 224.804688 199.5 224.867188 198.695312 C 224.933594 197.890625 224.972656 197.085938 224.984375 196.28125 C 225 195.472656 224.992188 194.667969 224.960938 193.863281 C 224.925781 193.058594 224.867188 192.253906 224.789062 191.453125 C 224.707031 190.648438 224.601562 189.851562 224.472656 189.054688 C 224.34375 188.257812 224.191406 187.46875 224.015625 186.679688 C 223.839844 185.894531 223.640625 185.113281 223.417969 184.335938 C 223.195312 183.5625 222.949219 182.796875 222.683594 182.035156 L 219.957031 183.003906 C 220.207031 183.710938 220.433594 184.421875 220.640625 185.140625 C 220.847656 185.863281 221.03125 186.585938 221.195312 187.316406 C 221.359375 188.046875 221.5 188.78125 221.617188 189.523438 C 221.738281 190.261719 221.835938 191.003906 221.910156 191.746094 C 221.984375 192.492188 222.039062 193.238281 222.070312 193.988281 C 222.097656 194.734375 222.109375 195.484375 222.09375 196.230469 C 222.078125 196.980469 222.042969 197.726562 221.984375 198.472656 C 221.925781 199.21875 221.84375 199.964844 221.742188 200.703125 C 221.636719 201.445312 221.511719 202.183594 221.367188 202.917969 C 221.21875 203.652344 221.050781 204.378906 220.859375 205.105469 C 220.667969 205.828125 220.457031 206.546875 220.222656 207.257812 C 219.988281 207.96875 219.734375 208.671875 219.460938 209.367188 C 219.183594 210.0625 218.886719 210.75 218.570312 211.429688 C 218.253906 212.109375 217.917969 212.777344 217.5625 213.433594 C 217.207031 214.09375 216.832031 214.738281 216.433594 215.375 C 216.039062 216.011719 215.625 216.636719 215.195312 217.246094 C 214.761719 217.855469 214.3125 218.457031 213.84375 219.039062 C 213.375 219.625 212.890625 220.195312 212.390625 220.75 C 211.886719 221.304688 211.371094 221.84375 210.835938 222.367188 C 210.300781 222.894531 209.753906 223.402344 209.1875 223.894531 C 208.625 224.382812 208.042969 224.859375 207.453125 225.316406 C 206.859375 225.773438 206.253906 226.210938 205.632812 226.632812 C 205.015625 227.054688 204.382812 227.457031 203.742188 227.839844 C 203.097656 228.222656 202.445312 228.585938 201.78125 228.929688 C 201.113281 229.273438 200.441406 229.597656 199.757812 229.902344 C 199.074219 230.207031 198.378906 230.492188 197.679688 230.753906 C 196.976562 231.015625 196.269531 231.257812 195.554688 231.476562 C 194.839844 231.699219 194.117188 231.898438 193.390625 232.074219 C 192.664062 232.25 191.929688 232.40625 191.195312 232.539062 C 190.457031 232.675781 189.71875 232.785156 188.976562 232.875 C 188.230469 232.964844 187.488281 233.03125 186.738281 233.078125 C 185.992188 233.121094 185.246094 233.144531 184.496094 233.144531 Z M 178.710938 236.375 L 175.734375 234.589844 L 178.710938 232.808594 Z M 178.710938 236.375 " fill-opacity="1" fill-rule="nonzero"/></g><g clip-path="url(#141f63667a)"><path fill="#ffffff" d="M 184.496094 157.929688 C 185.4375 157.929688 186.402344 157.980469 187.390625 158.050781 L 187.390625 160.824219 C 187.390625 161.082031 187.453125 161.328125 187.585938 161.550781 C 187.71875 161.777344 187.894531 161.953125 188.125 162.082031 C 188.351562 162.210938 188.59375 162.273438 188.855469 162.269531 C 189.113281 162.265625 189.355469 162.195312 189.582031 162.0625 L 196.8125 157.722656 C 196.917969 157.660156 197.015625 157.582031 197.101562 157.492188 C 197.191406 157.402344 197.265625 157.304688 197.324219 157.195312 C 197.386719 157.085938 197.433594 156.972656 197.464844 156.851562 C 197.496094 156.730469 197.511719 156.609375 197.511719 156.484375 C 197.511719 156.359375 197.496094 156.234375 197.464844 156.117188 C 197.433594 155.996094 197.386719 155.878906 197.324219 155.773438 C 197.265625 155.664062 197.191406 155.5625 197.101562 155.476562 C 197.015625 155.386719 196.917969 155.308594 196.8125 155.242188 L 189.582031 150.90625 C 189.355469 150.769531 189.113281 150.703125 188.855469 150.699219 C 188.59375 150.695312 188.351562 150.757812 188.125 150.886719 C 187.894531 151.015625 187.71875 151.191406 187.585938 151.414062 C 187.453125 151.640625 187.390625 151.882812 187.390625 152.144531 L 187.390625 155.148438 C 186.40625 155.082031 185.441406 155.039062 184.496094 155.039062 C 183.691406 155.039062 182.882812 155.0625 182.078125 155.109375 C 181.273438 155.160156 180.472656 155.230469 179.671875 155.328125 C 178.871094 155.425781 178.074219 155.542969 177.28125 155.6875 C 176.488281 155.832031 175.699219 156 174.917969 156.191406 C 174.132812 156.382812 173.355469 156.59375 172.585938 156.832031 C 171.816406 157.070312 171.050781 157.332031 170.296875 157.613281 C 169.542969 157.894531 168.796875 158.203125 168.058594 158.527344 C 167.324219 158.855469 166.597656 159.207031 165.882812 159.574219 C 165.164062 159.945312 164.460938 160.339844 163.769531 160.75 C 163.074219 161.164062 162.394531 161.597656 161.730469 162.050781 C 161.0625 162.503906 160.410156 162.976562 159.773438 163.46875 C 159.132812 163.960938 158.511719 164.472656 157.902344 165.003906 C 157.292969 165.53125 156.703125 166.078125 156.128906 166.644531 C 155.550781 167.207031 154.996094 167.789062 154.453125 168.386719 C 153.914062 168.984375 153.390625 169.601562 152.886719 170.230469 C 152.382812 170.859375 151.898438 171.503906 151.433594 172.160156 C 150.96875 172.820312 150.523438 173.492188 150.097656 174.175781 C 149.671875 174.859375 149.265625 175.558594 148.882812 176.265625 C 148.5 176.976562 148.136719 177.695312 147.796875 178.425781 C 147.457031 179.15625 147.136719 179.898438 146.839844 180.644531 C 146.542969 181.394531 146.269531 182.152344 146.019531 182.917969 C 145.765625 183.6875 145.539062 184.457031 145.332031 185.238281 C 145.128906 186.019531 144.945312 186.804688 144.789062 187.59375 C 144.628906 188.382812 144.496094 189.179688 144.382812 189.976562 C 144.273438 190.777344 144.1875 191.578125 144.121094 192.378906 C 144.058594 193.183594 144.019531 193.988281 144.003906 194.796875 C 143.992188 195.601562 144 196.40625 144.03125 197.210938 C 144.066406 198.019531 144.121094 198.820312 144.203125 199.625 C 144.285156 200.425781 144.390625 201.226562 144.519531 202.019531 C 144.648438 202.816406 144.800781 203.609375 144.976562 204.394531 C 145.152344 205.183594 145.351562 205.960938 145.574219 206.738281 C 145.796875 207.511719 146.042969 208.28125 146.308594 209.039062 L 149.035156 208.070312 C 148.785156 207.367188 148.558594 206.652344 148.351562 205.933594 C 148.144531 205.214844 147.960938 204.488281 147.796875 203.757812 C 147.632812 203.027344 147.492188 202.292969 147.371094 201.554688 C 147.253906 200.816406 147.15625 200.074219 147.082031 199.328125 C 147.007812 198.582031 146.953125 197.835938 146.921875 197.089844 C 146.890625 196.339844 146.882812 195.59375 146.898438 194.84375 C 146.914062 194.097656 146.949219 193.347656 147.007812 192.601562 C 147.066406 191.855469 147.148438 191.113281 147.25 190.371094 C 147.351562 189.628906 147.476562 188.890625 147.625 188.15625 C 147.773438 187.421875 147.941406 186.695312 148.132812 185.972656 C 148.324219 185.246094 148.535156 184.53125 148.769531 183.820312 C 149.003906 183.105469 149.257812 182.402344 149.53125 181.707031 C 149.808594 181.011719 150.101562 180.324219 150.421875 179.644531 C 150.738281 178.96875 151.074219 178.300781 151.429688 177.640625 C 151.785156 176.984375 152.160156 176.335938 152.554688 175.699219 C 152.953125 175.0625 153.363281 174.441406 153.796875 173.828125 C 154.230469 173.21875 154.679688 172.621094 155.148438 172.035156 C 155.617188 171.453125 156.101562 170.882812 156.601562 170.328125 C 157.105469 169.769531 157.621094 169.230469 158.15625 168.707031 C 158.691406 168.183594 159.238281 167.675781 159.804688 167.183594 C 160.367188 166.691406 160.949219 166.214844 161.539062 165.757812 C 162.132812 165.300781 162.738281 164.863281 163.359375 164.441406 C 163.976562 164.023438 164.609375 163.621094 165.25 163.234375 C 165.894531 162.851562 166.546875 162.488281 167.210938 162.144531 C 167.878906 161.800781 168.550781 161.476562 169.234375 161.171875 C 169.917969 160.867188 170.613281 160.585938 171.3125 160.324219 C 172.015625 160.058594 172.722656 159.816406 173.4375 159.597656 C 174.152344 159.378906 174.875 159.179688 175.601562 159 C 176.328125 158.824219 177.058594 158.667969 177.796875 158.535156 C 178.535156 158.402344 179.273438 158.289062 180.015625 158.199219 C 180.761719 158.109375 181.503906 158.042969 182.253906 158 C 183 157.953125 183.746094 157.929688 184.496094 157.929688 Z M 190.28125 154.699219 L 193.257812 156.484375 L 190.28125 158.265625 Z M 190.28125 154.699219 " fill-opacity="1" fill-rule="nonzero"/></g></svg>